# xmcd CD database file
#
# Track frame offsets:
#	150
#	2848
#	18523
#	33841
#	48967
#	70722
#	89417
#	109137
#	123673
#	139322
#	155839
#	171979
#	185191
#	225410
#
# Disc length: 4516 seconds
#
# Revision: 0
# Processed by: cddbd v1.5.1PL2 Copyright (c) Steve Scherf et al.
# Submitted via: CDex 1.51
#
DISCID=bf11a20e
DTITLE=GEMINI FIVE - BLACK:ANTHEM
DYEAR=1900
DGENRE=Hard Rock
TTITLE0=Babylon K:A:O:S
TTITLE1=Flesh:For:Fantasy
TTITLE2=When The Body Speaks
TTITLE3=Bring On The Monkey
TTITLE4=Heaven Come Undone
TTITLE5=You Lead Me To Madness
TTITLE6=Black:Anthem
TTITLE7=Making Love Song
TTITLE8=Insane Is Sane
TTITLE9=Second II None
TTITLE10=Love Venus
TTITLE11=Sinners Parade
TTITLE12=Silent Night
TTITLE13=Video Clips
EXTD=
EXTT0=
EXTT1=
EXTT2=
EXTT3=
EXTT4=
EXTT5=
EXTT6=
EXTT7=
EXTT8=
EXTT9=
EXTT10=
EXTT11=
EXTT12=
EXTT13=
PLAYORDER=
